HIERARCHY
ROOT Hips
{
	OFFSET 0.000000 0.000000 0.000000
	CHANNELS 6 Xposition Yposition Zposition Zrotation Yrotation Xrotation 
	JOINT LHipJoint
	{
		OFFSET 0.000000 0.000000 0.000000
		CHANNELS 3 Zrotation Yrotation Xrotation
		JOINT LeftUpLeg
		{
			OFFSET 1.363060 -1.794630 0.839290
			CHANNELS 3 Zrotation Yrotation Xrotation
			JOINT LeftLeg
			{
				OFFSET 2.448110 -6.726130 0.000000
				CHANNELS 3 Zrotation Yrotation Xrotation
				JOINT LeftFoot
				{
					OFFSET 2.562200 -7.039590 0.000000
					CHANNELS 3 Zrotation Yrotation Xrotation
					JOINT LeftToeBase
					{
						OFFSET 0.157640 -0.433110 2.322550
						CHANNELS 3 Zrotation Yrotation Xrotation
						End Site
						{
							OFFSET 0.000000 0.000000 0.000000
						}
					}
				}
			}
		}
	}
	JOINT RHipJoint
	{
		OFFSET 0.000000 0.000000 0.000000
		CHANNELS 3 Zrotation Yrotation Xrotation
		JOINT RightUpLeg
		{
			OFFSET -1.305520 -1.794630 0.839290
			CHANNELS 3 Zrotation Yrotation Xrotation
			JOINT RightLeg
			{
				OFFSET -2.542530 -6.985550 0.000000
				CHANNELS 3 Zrotation Yrotation Xrotation
				JOINT RightFoot
				{
					OFFSET -2.568260 -7.056230 0.000000
					CHANNELS 3 Zrotation Yrotation Xrotation
					JOINT RightToeBase
					{
						OFFSET -0.164730 -0.452590 2.363150
						CHANNELS 3 Zrotation Yrotation Xrotation
						End Site
						{
							OFFSET 0.000000 0.000000 0.000000
						}
					}
				}
			}
		}
	}
	JOINT LowerBack
	{
		OFFSET 0.000000 0.000000 0.000000
		CHANNELS 3 Zrotation Yrotation Xrotation
		JOINT Spine
		{
			OFFSET 0.028270 2.035590 -0.193380
			CHANNELS 3 Zrotation Yrotation Xrotation
			JOINT Spine1
			{
				OFFSET 0.056720 2.048850 -0.042750
				CHANNELS 3 Zrotation Yrotation Xrotation
				JOINT Neck
				{
					OFFSET 0.000000 0.000000 0.000000
					CHANNELS 3 Zrotation Yrotation Xrotation
					JOINT Neck1
					{
						OFFSET -0.054170 1.746240 0.172020
						CHANNELS 3 Zrotation Yrotation Xrotation
						JOINT Head
						{
							OFFSET 0.104070 1.761360 -0.123970
							CHANNELS 3 Zrotation Yrotation Xrotation
							End Site
							{
								OFFSET 0.000000 0.000000 0.000000
							}
						}
					}
				}
				JOINT LeftShoulder
				{
					OFFSET 0.000000 0.000000 0.000000
					CHANNELS 3 Zrotation Yrotation Xrotation
					JOINT LeftArm
					{
						OFFSET 3.362410 1.200890 -0.311210
						CHANNELS 3 Zrotation Yrotation Xrotation
						JOINT LeftForeArm
						{
							OFFSET 4.983000 -0.000000 -0.000000
							CHANNELS 3 Zrotation Yrotation Xrotation
							JOINT LeftHand
							{
								OFFSET 3.483560 -0.000000 -0.000000
								CHANNELS 3 Zrotation Yrotation Xrotation
								JOINT LeftFingerBase
								{
									OFFSET 0.000000 0.000000 0.000000
									CHANNELS 3 Zrotation Yrotation Xrotation
									JOINT LeftHandIndex1
									{
										OFFSET 0.715260 -0.000000 -0.000000
										CHANNELS 3 Zrotation Yrotation Xrotation
										End Site
										{
											OFFSET 0.000000 0.000000 0.000000
										}
									}
								}
								JOINT LThumb
								{
									OFFSET 0.000000 0.000000 0.000000
									CHANNELS 3 Zrotation Yrotation Xrotation
									End Site
									{
										OFFSET 0.000000 0.000000 0.000000
									}
								}
							}
						}
					}
				}
				JOINT RightShoulder
				{
					OFFSET 0.000000 0.000000 0.000000
					CHANNELS 3 Zrotation Yrotation Xrotation
					JOINT RightArm
					{
						OFFSET -3.136600 1.374050 -0.404650
						CHANNELS 3 Zrotation Yrotation Xrotation
						JOINT RightForeArm
						{
							OFFSET -5.241900 -0.000000 -0.000000
							CHANNELS 3 Zrotation Yrotation Xrotation
							JOINT RightHand
							{
								OFFSET -3.444170 -0.000000 -0.000000
								CHANNELS 3 Zrotation Yrotation Xrotation
								JOINT RightFingerBase
								{
									OFFSET 0.000000 0.000000 0.000000
									CHANNELS 3 Zrotation Yrotation Xrotation
									JOINT RightHandIndex1
									{
										OFFSET -0.622530 -0.000000 -0.000000
										CHANNELS 3 Zrotation Yrotation Xrotation
										End Site
										{
											OFFSET 0.000000 0.000000 0.000000
										}
									}
								}
								JOINT RThumb
								{
									OFFSET 0.000000 0.000000 0.000000
									CHANNELS 3 Zrotation Yrotation Xrotation
									End Site
									{
										OFFSET 0.000000 0.000000 0.000000
									}
								}
							}
						}
					}
				}
			}
		}
	}
}
MOTION
Frames: 6
Frame Time: 0.008333
11.919550 18.072454 27.261581 -175.236250 1.157300 -174.191738 -2.816236 -3.587471 -0.638142 -10.937871 -1.369035 1.883409 -0.699095 2.795956 5.105318 1.027647 -3.432366 4.472866 4.668000 12.999900 39.368100 -1.380367 2.850963 -4.346403 29.670100 3.003158 7.655110 0.372827 -2.483635 2.966012 0.543306 -12.658528 -9.279794 -0.203100 2.901700 -8.005200 6.121346 2.515359 -4.231617 0.959573 2.836522 -8.625762 -4.532224 1.621206 -1.040482 -3.552186 -1.753406 -8.283055 5.287869 -2.445206 3.670313 1.611900 -1.126700 0.540200 -0.474111 -8.631677 1.951459 -84.520491 2.166442 52.411811 12.619457 -17.279212 -1.875040 0.529675 0.078369 -17.124030 3.293957 -10.828926 -0.516300 -7.125000 0.000000 0.000000 -17.026300 19.431300 10.879500 0.404466 9.007573 2.535666 86.290467 -11.617633 46.665230 -16.283527 20.225532 -4.422605 1.795494 1.535330 2.116891 -4.879448 -42.372091 4.569000 7.125000 0.000000 0.000000 45.186400 -69.029900 -28.007000 
11.925587 18.080074 27.271378 -175.133019 0.956128 -174.328796 -2.812409 -3.586284 -0.635875 -10.706991 -1.089983 1.816481 -0.680189 2.830996 5.214638 1.055148 -3.581081 4.963419 4.845800 13.208100 40.152400 -1.341447 2.851802 -4.321486 29.885550 3.070613 7.784950 0.416030 -2.483232 2.961321 0.549055 -12.580901 -11.260366 -0.126900 2.296300 -6.325300 6.126586 2.399148 -3.976256 1.030331 2.713720 -8.650387 -4.449024 1.562263 -1.225630 -3.336817 -1.737297 -7.924529 4.970353 -2.398108 3.219703 1.492800 -1.114500 0.342500 -0.472717 -8.607106 1.957917 -84.387195 2.798775 55.011677 12.658231 -17.237086 -1.911907 0.526433 0.273951 -15.039773 9.050940 -11.783969 -1.764000 -7.125000 0.000000 0.000000 -13.022100 18.092500 8.558300 0.405100 9.026532 2.531611 86.279164 -11.635340 46.470535 -16.130445 20.045355 -4.364318 1.791220 1.539137 2.364238 -4.356153 -42.265621 4.190000 7.125000 0.000000 0.000000 45.538800 -68.802800 -28.039800 
11.932119 18.085022 27.281572 -175.187968 0.773944 -174.456051 -2.817887 -3.590779 -0.637515 -10.675781 -0.864120 1.759880 -0.666199 2.864465 5.303558 1.080090 -3.727451 5.332980 4.858800 13.223000 40.209000 -1.293024 2.863366 -4.300724 29.887883 3.111434 7.925252 0.440910 -2.469446 2.932502 0.490542 -12.111173 -13.104118 -0.029400 1.107300 -3.044200 5.970572 2.293013 -3.711384 1.058136 2.612085 -8.668158 -4.355575 1.515144 -1.412266 -3.411355 -1.741624 -7.871331 4.999266 -2.407163 3.261431 1.513700 -1.118400 0.349400 -0.473331 -8.607759 1.952599 -84.439392 2.874916 54.856165 12.572630 -17.122290 -1.890528 0.529299 0.281182 -15.007386 9.204580 -11.901455 -1.814000 -7.125000 0.000000 0.000000 -12.913000 17.962500 8.520800 0.410120 9.034948 2.530229 86.262677 -11.634748 46.228602 -15.960603 19.854107 -4.317301 1.787876 1.553372 2.683812 -3.774097 -42.444814 3.790700 7.125000 0.000000 0.000000 46.529300 -68.756300 -28.698100 
11.938056 18.089476 27.291270 -175.199749 0.573937 -174.558646 -2.821552 -3.595941 -0.640528 -10.588946 -0.654232 1.673409 -0.651071 2.906245 5.422328 1.109002 -3.904698 5.693722 4.860500 13.225000 40.216600 -1.246718 2.870939 -4.277040 29.937345 3.156495 8.038184 0.463918 -2.449564 2.888800 0.405181 -11.608784 -14.892420 -0.000300 0.103900 -0.285400 5.876410 2.202862 -3.468545 1.073674 2.523383 -8.684642 -4.317625 1.472563 -1.582182 -3.541282 -1.737682 -7.888484 5.168591 -2.419043 3.388457 1.582800 -1.122200 0.396300 -0.474515 -8.613693 1.951942 -84.369660 2.982372 54.954547 12.564568 -17.115492 -1.874193 0.511500 0.255735 -15.507776 8.390791 -11.308829 -1.561900 -7.125000 0.000000 0.000000 -13.492600 18.608300 8.726600 0.415963 9.035533 2.525463 86.258533 -11.649835 46.059411 -15.826549 19.694720 -4.266828 1.794439 1.545952 2.930702 -3.641550 -42.316102 3.689900 7.125000 0.000000 0.000000 46.410700 -68.631100 -28.491400 
11.943598 18.102143 27.305917 -175.708013 0.308649 -174.688797 -2.849790 -3.626268 -0.659173 -11.080815 -0.294746 1.460328 -0.634372 2.998527 5.632348 1.148078 -4.124087 6.383401 5.027400 13.414500 40.940700 -1.128002 2.916483 -4.238091 29.255856 2.951759 8.087761 0.491596 -2.423196 2.866920 0.152511 -10.458739 -18.305206 -0.062500 -1.613000 4.437200 5.258373 2.053526 -3.149583 0.987406 2.399086 -8.721863 -4.170542 1.418254 -1.838213 -3.459676 -1.762848 -7.712837 5.117876 -2.453896 3.271204 1.554100 -1.143900 0.335000 -0.485243 -8.604903 1.947242 -84.247142 3.216749 55.253864 12.610657 -17.191887 -1.856141 0.466523 0.180184 -15.728199 6.424959 -9.635233 -1.001300 -7.125000 0.000000 0.000000 -14.938900 20.375800 9.113400 0.414462 9.055152 2.522410 86.275912 -11.723690 45.901437 -15.730514 19.565688 -4.211581 1.812345 1.513404 3.135048 -3.986546 -41.852153 3.905000 7.125000 0.000000 0.000000 45.115200 -68.412000 -27.367500 
11.941520 18.125895 27.319673 -177.204799 0.045057 -174.740135 -2.888873 -3.687385 -0.688518 -12.877166 0.058306 1.092854 -0.631724 3.111851 5.823391 1.181837 -4.326468 7.096345 5.215700 13.622600 41.746300 -1.052544 3.019150 -4.282082 27.236285 2.129449 7.971722 0.458006 -2.397686 2.868670 0.111624 -10.126575 -18.271038 -0.109400 -2.132700 5.872600 3.634138 1.832107 -2.944445 0.713733 2.227343 -8.782766 -3.750341 1.365086 -2.064844 -3.445179 -1.784707 -7.489951 5.051716 -2.481994 3.147937 1.530600 -1.162200 0.261900 -0.498823 -8.593580 1.942501 -84.225854 3.421399 55.378667 12.642776 -17.223798 -1.883640 0.491965 0.234906 -15.454836 7.874091 -10.601950 -1.371100 -7.125000 0.000000 0.000000 -13.879700 19.336800 8.760000 0.401624 9.066312 2.523515 86.224829 -11.865357 45.771516 -15.706630 19.524679 -4.194196 1.825375 1.493014 3.291638 -4.273256 -41.653488 4.093300 7.125000 0.000000 0.000000 44.415300 -68.355600 -26.827100 
